<mxfile host="app.diagrams.net" agent="Mozilla/5.0 (Windows NT 10.0; Win64; x64) AppleWebKit/537.36 (KHTML, like Gecko) Chrome/128.0.0.0 Safari/537.36" version="24.7.12">
  <diagram id="C5RBs43oDa-KdzZeNtuy" name="Page-1">
    <mxGraphModel dx="988" dy="523" grid="1" gridSize="10" guides="1" tooltips="1" connect="1" arrows="1" fold="1" page="1" pageScale="1" pageWidth="827" pageHeight="1169" math="0" shadow="0">
      <root>
        <mxCell id="WIyWlLk6GJQsqaUBKTNV-0" />
        <mxCell id="WIyWlLk6GJQsqaUBKTNV-1" parent="WIyWlLk6GJQsqaUBKTNV-0" />
        <mxCell id="o9Td8-uSWLV863jlJIZB-1" value="get task result" style="edgeStyle=orthogonalEdgeStyle;rounded=0;orthogonalLoop=1;jettySize=auto;html=1;exitX=0.75;exitY=1;exitDx=0;exitDy=0;entryX=0.75;entryY=0;entryDx=0;entryDy=0;startArrow=classic;startFill=1;" edge="1" parent="WIyWlLk6GJQsqaUBKTNV-1" source="WIyWlLk6GJQsqaUBKTNV-3" target="o9Td8-uSWLV863jlJIZB-0">
          <mxGeometry relative="1" as="geometry" />
        </mxCell>
        <mxCell id="o9Td8-uSWLV863jlJIZB-2" value="add task to queue" style="edgeStyle=orthogonalEdgeStyle;rounded=0;orthogonalLoop=1;jettySize=auto;html=1;exitX=0.25;exitY=1;exitDx=0;exitDy=0;entryX=0.25;entryY=0;entryDx=0;entryDy=0;" edge="1" parent="WIyWlLk6GJQsqaUBKTNV-1" source="WIyWlLk6GJQsqaUBKTNV-3" target="o9Td8-uSWLV863jlJIZB-0">
          <mxGeometry relative="1" as="geometry" />
        </mxCell>
        <mxCell id="WIyWlLk6GJQsqaUBKTNV-3" value="FastAPI" style="rounded=1;whiteSpace=wrap;html=1;fontSize=12;glass=0;strokeWidth=1;shadow=0;" parent="WIyWlLk6GJQsqaUBKTNV-1" vertex="1">
          <mxGeometry x="140" y="40" width="180" height="40" as="geometry" />
        </mxCell>
        <mxCell id="o9Td8-uSWLV863jlJIZB-5" value="queue task" style="edgeStyle=orthogonalEdgeStyle;rounded=0;orthogonalLoop=1;jettySize=auto;html=1;exitX=0.25;exitY=1;exitDx=0;exitDy=0;entryX=0.25;entryY=0;entryDx=0;entryDy=0;" edge="1" parent="WIyWlLk6GJQsqaUBKTNV-1" source="o9Td8-uSWLV863jlJIZB-0" target="o9Td8-uSWLV863jlJIZB-4">
          <mxGeometry relative="1" as="geometry" />
        </mxCell>
        <mxCell id="o9Td8-uSWLV863jlJIZB-0" value="CeleryManager" style="rounded=1;whiteSpace=wrap;html=1;fontSize=12;glass=0;strokeWidth=1;shadow=0;" vertex="1" parent="WIyWlLk6GJQsqaUBKTNV-1">
          <mxGeometry x="140" y="170" width="180" height="40" as="geometry" />
        </mxCell>
        <mxCell id="o9Td8-uSWLV863jlJIZB-6" value="task status" style="edgeStyle=orthogonalEdgeStyle;rounded=0;orthogonalLoop=1;jettySize=auto;html=1;exitX=0.75;exitY=0;exitDx=0;exitDy=0;entryX=0.75;entryY=1;entryDx=0;entryDy=0;startArrow=classic;startFill=1;" edge="1" parent="WIyWlLk6GJQsqaUBKTNV-1" source="o9Td8-uSWLV863jlJIZB-4" target="o9Td8-uSWLV863jlJIZB-0">
          <mxGeometry relative="1" as="geometry" />
        </mxCell>
        <mxCell id="o9Td8-uSWLV863jlJIZB-4" value="RabbitMQ" style="rounded=1;whiteSpace=wrap;html=1;fontSize=12;glass=0;strokeWidth=1;shadow=0;" vertex="1" parent="WIyWlLk6GJQsqaUBKTNV-1">
          <mxGeometry x="140" y="290" width="180" height="40" as="geometry" />
        </mxCell>
        <mxCell id="o9Td8-uSWLV863jlJIZB-18" value="task status" style="edgeStyle=orthogonalEdgeStyle;rounded=0;orthogonalLoop=1;jettySize=auto;html=1;exitX=1;exitY=0.25;exitDx=0;exitDy=0;entryX=0;entryY=0.5;entryDx=0;entryDy=0;" edge="1" parent="WIyWlLk6GJQsqaUBKTNV-1" source="o9Td8-uSWLV863jlJIZB-7" target="o9Td8-uSWLV863jlJIZB-16">
          <mxGeometry relative="1" as="geometry">
            <Array as="points">
              <mxPoint x="380" y="442" />
              <mxPoint x="410" y="443" />
            </Array>
          </mxGeometry>
        </mxCell>
        <mxCell id="o9Td8-uSWLV863jlJIZB-7" value="Celery" style="rounded=1;whiteSpace=wrap;html=1;fontSize=12;glass=0;strokeWidth=1;shadow=0;dashed=1;dashPattern=8 8;verticalAlign=top;" vertex="1" parent="WIyWlLk6GJQsqaUBKTNV-1">
          <mxGeometry x="100" y="380" width="260" height="250" as="geometry" />
        </mxCell>
        <mxCell id="o9Td8-uSWLV863jlJIZB-8" value="Worker" style="rounded=1;whiteSpace=wrap;html=1;verticalAlign=top;" vertex="1" parent="WIyWlLk6GJQsqaUBKTNV-1">
          <mxGeometry x="222.5" y="430" width="90" height="90" as="geometry" />
        </mxCell>
        <mxCell id="o9Td8-uSWLV863jlJIZB-13" value="Worker" style="rounded=1;whiteSpace=wrap;html=1;verticalAlign=top;" vertex="1" parent="WIyWlLk6GJQsqaUBKTNV-1">
          <mxGeometry x="187.5" y="460" width="90" height="90" as="geometry" />
        </mxCell>
        <mxCell id="o9Td8-uSWLV863jlJIZB-14" value="Worker&lt;div&gt;&lt;br&gt;&lt;/div&gt;&lt;div&gt;&lt;br&gt;&lt;/div&gt;" style="rounded=1;whiteSpace=wrap;html=1;verticalAlign=top;" vertex="1" parent="WIyWlLk6GJQsqaUBKTNV-1">
          <mxGeometry x="147.5" y="490" width="90" height="90" as="geometry" />
        </mxCell>
        <mxCell id="o9Td8-uSWLV863jlJIZB-16" value="Websocket" style="rounded=1;whiteSpace=wrap;html=1;" vertex="1" parent="WIyWlLk6GJQsqaUBKTNV-1">
          <mxGeometry x="472" y="413" width="120" height="60" as="geometry" />
        </mxCell>
        <mxCell id="o9Td8-uSWLV863jlJIZB-21" value="get task from queue" style="edgeStyle=orthogonalEdgeStyle;rounded=0;orthogonalLoop=1;jettySize=auto;html=1;exitX=0.25;exitY=1;exitDx=0;exitDy=0;entryX=0.327;entryY=0;entryDx=0;entryDy=0;entryPerimeter=0;" edge="1" parent="WIyWlLk6GJQsqaUBKTNV-1" source="o9Td8-uSWLV863jlJIZB-4" target="o9Td8-uSWLV863jlJIZB-7">
          <mxGeometry relative="1" as="geometry" />
        </mxCell>
        <mxCell id="o9Td8-uSWLV863jlJIZB-22" value="return result" style="edgeStyle=orthogonalEdgeStyle;rounded=0;orthogonalLoop=1;jettySize=auto;html=1;exitX=0.75;exitY=1;exitDx=0;exitDy=0;entryX=0.673;entryY=0;entryDx=0;entryDy=0;entryPerimeter=0;startArrow=classic;startFill=1;endArrow=none;endFill=0;" edge="1" parent="WIyWlLk6GJQsqaUBKTNV-1" source="o9Td8-uSWLV863jlJIZB-4" target="o9Td8-uSWLV863jlJIZB-7">
          <mxGeometry relative="1" as="geometry" />
        </mxCell>
        <mxCell id="o9Td8-uSWLV863jlJIZB-23" value="Pipeline" style="rounded=1;whiteSpace=wrap;html=1;" vertex="1" parent="WIyWlLk6GJQsqaUBKTNV-1">
          <mxGeometry x="156.25" y="512" width="72.5" height="60" as="geometry" />
        </mxCell>
      </root>
    </mxGraphModel>
  </diagram>
</mxfile>
